# xmcd CD database file
#
# Track frame offsets:
#	150
#	13716
#	28072
#	43331
#	60507
#	77434
#	93811
#	107944
#	121324
#	137673
#	155180
#	168074
#
# Disc length: 2467 seconds
#
# Revision: 0
# Processed by: cddbd v1.4PL0 Copyright (c) Steve Scherf et al.
# Submitted via: CDex 1.51
#
DISCID=9409a10c
DTITLE=Ruzni autori - Country kolekce 2
DYEAR=1998
DGENRE=Country
TTITLE0=Prodavac - Michal Tucny
TTITLE1=Bejt kousek za vodou - Petr Kocman
TTITLE2=Usta do podkovy - Krovi a Vit Tucny
TTITLE3=Pytlacka - Zdenek Kocman
TTITLE4=Jeste dlouhou cestu mam - Michal Tucny
TTITLE5=Oranzovy expres - Petr Kocman
TTITLE6=Nezlob se, ze zpivam country - Krovi a Vit Tucny
TTITLE7=DIANO - Zdenek Kocman
TTITLE8=Koukam jak cela zeme vztava - Michal Tucny
TTITLE9=Chci byt jak dym - Petr Kocman
TTITLE10=Tolikrat v zivote se nestava - Vit Tucny
TTITLE11=Volskej vuz - Zdenek Kocman
EXTD=YEAR: 1998
EXTT0=
EXTT1=
EXTT2=
EXTT3=
EXTT4=
EXTT5=
EXTT6=
EXTT7=
EXTT8=
EXTT9=
EXTT10=
EXTT11=
PLAYORDER=
